<svg xmlns="http://www.w3.org/2000/svg" version="1.1" xmlns:xlink="http://www.w3.org/1999/xlink" xmlns:svgjs="http://svgjs.com/svgjs" width="619" height="703"><svg width="619" height="703" viewBox="0 0 619 703" fill="none" xmlns="http://www.w3.org/2000/svg">
<path d="M359.375 378.25H370.625L383.75 380.125L396.25 383.875L402.5 386.375L405 408.25V413.25L404.375 413.875L398.75 413.25L396.25 410.75L390.625 400.75L385.625 395.125L379.375 391.375L373.75 389.5L370.625 388.875H358.75L351.875 390.75L346.875 393.875L345 394.5L341.25 402L340.625 403.875V412L344.375 419.5L349.375 423.875L359.375 429.5L370 434.5L383.125 440.125L391.875 445.125L399.375 450.75L405.625 457.625L408.75 463.875L410.625 470.75V482.625L408.75 491.375L404.375 500.125L398.75 506.375L393.75 510.125L387.5 513.25L378.125 515.75L374.375 516.375H353.125L342.5 514.5L332.5 511.375L324.375 507.625L323.125 501.375L320.625 483.875L319.375 473.875L320 473.25L326.25 473.875L328.75 476.375L333.75 488.25L338.75 495.75L343.75 500.75L351.25 504.5L355.625 505.75L366.25 506.375L375 505.125L382.5 501.375L387.5 495.75L390 489.5L390.625 482L389.375 475.75L386.25 470.125L380.625 465.125L370.625 459.5L353.125 452.625L340 445.75L332.5 439.5L326.875 431.375L324.375 423.875L323.75 419.5V411.375L325.625 402.625L330 393.875L335.625 387.625L344.375 382L351.25 379.5L359.375 378.25Z" fill="#414143"></path>
<path d="M605.625 77H610.625L615.625 78.25L617.5 81.375L618.125 84.5V90.125L615.625 103.875L610 123.25L601.875 145.75L594.375 163.25L587.5 178.25L581.25 190.125L573.75 203.25L566.25 215.125L557.5 227.625L550 237.625L543.125 245.75L537.5 252.625L516.25 273.875L511.25 278.25L503.125 285.125L492.5 293.25L481.25 301.375L468.75 309.5L459.375 315.125L449.375 320.125L433.75 326.375L414.375 332.625L385.625 340.75L379.375 342H374.375L371.25 340.125L370 338.25L369.375 335.125L370 325.75L373.75 316.375L376.875 302L380.625 280.75L383.75 270.75L390.625 253.875L399.375 235.125L405.625 223.25L415.625 206.375L424.375 193.25L431.875 183.25L437.5 177L441.875 172L449.375 163.875L459.375 154.5L468.125 147L478.75 138.25L490.625 129.5L503.125 120.75L516.25 112.625L531.875 103.875L546.25 97L575.625 87L605.625 77Z" fill="#FEBB38"></path>
<path d="M382.5 0.125L385.625 1.375L391.875 7L395.625 12.625L399.375 21.375L405 44.5L410 60.75L416.25 83.25L420.625 102.625L423.75 121.375L425.625 138.875V165.125L423.75 177L420.625 187L416.875 192L404.375 204.5L398.125 213.875L390.625 227L385 237.625L376.875 255.125L371.25 269.5L368.125 280.75L364.375 300.75L361.25 317.625L357.5 330.125L353.75 338.875L349.375 345.125L342.5 350.125L337.5 353.25L334.375 352.625L330.625 350.125L327.5 347L323.125 340.75L317.5 327.625L313.125 314.5L301.25 269.5L298.125 254.5L295.625 237L294.375 215.125V206.375L295.625 186.375L298.125 168.25L302.5 147L307.5 129.5L312.5 114.5L320.625 94.5L329.375 76.375L336.875 62L345.625 47.625L355 33.875L363.125 22.625L370 14.5L375.625 7.625L382.5 0.125Z" fill="#FEBB38"></path>
<path d="M163.125 87H168.75L176.875 89.5L183.75 93.875L190 99.5L195 103.875L200.625 108.875L211.25 117L220 123.875L226.875 129.5L235 136.375L247.5 147.625L259.375 159.5L265 166.375L271.25 173.875L278.75 185.75L284.375 197.625L285 238.875L285.625 257L287.5 271.375L290 282L296.25 297.625L305 317.625L310 332.625L312.5 345.125V360.75L310.625 369.5L308.75 372.625L306.25 374.5L301.875 373.875L294.375 367.625L285 361.375L274.375 355.125L258.75 346.375L247.5 338.875L241.25 333.875L235 328.25L225.625 318.875L218.75 310.125L212.5 302L203.125 287.625L196.25 275.75L188.75 261.375L181.25 245.75L173.75 227L168.75 212L166.25 196.375L163.75 180.125L159.375 155.125L157.5 137V110.125L159.375 97.625L162.5 88.25L163.125 87Z" fill="#FEBB38"></path>
<path d="M33.75 245.125H45L69.375 246.375L91.875 248.875L109.375 252L126.875 256.375L149.375 263.875L159.375 267.625L178.125 272.625L184.375 275.75L188.125 280.125L194.375 295.125L200.625 305.125L208.125 315.75L215 324.5L222.5 332.625L230 338.875L243.125 347L255.625 354.5L263.125 359.5L271.875 366.375L278.75 372.625L284.375 380.125L288.75 388.875L290.625 394.5V399.5L285.625 402L276.875 403.875L271.25 405.75L266.875 406.375H251.875L234.375 404.5L210 400.125L194.375 395.75L176.875 388.875L158.125 380.75L143.125 373.25L126.25 363.25L118.75 358.25L109.375 351.375L99.375 343.25L91.25 335.75L86.875 332V330.75H85.625L81.25 325.75L76.875 321.375L71.25 314.5L63.75 305.75L55.625 295.125L48.75 287L42.5 280.125L36.25 272L31.25 262L30.625 260.125V249.5L31.875 245.75L33.75 245.125Z" fill="#FEBB38"></path>
<path d="M133.125 382.625L140 383.875L150 387.625L166.25 396.375L179.375 401.375L194.375 405.75L222.5 412L240 415.125L262.5 417.625L270 420.125L275 423.875L278.75 428.25L280.625 432.625L280 437.625L276.875 440.125L270.625 443.25L260.625 451.375L251.875 455.75L228.75 465.125L206.25 474.5L195 478.25L178.75 481.375L165 482.625H142.5L123.75 480.75L101.875 477L81.875 472L60 465.125L40 457.625L19.375 450.75L11.25 446.375L6.25 442L2.5 435.75L0.625 428.875L3.75 425.75L21.875 415.75L43.125 404.5L61.25 396.375L72.5 392L82.5 389.5L87.5 388.875L112.5 387.625L123.125 386.375L131.875 383.25L133.125 382.625Z" fill="#FEBB38"></path>
<path d="M260.625 461.375H278.75L281.25 463.875L282.5 467V471.375L278.75 477L273.125 487L265 505.75L259.375 516.375L251.875 526.375L244.375 535.125L238.125 541.375L231.25 547L222.5 553.875L213.75 559.5L203.75 565.125L193.75 570.125L181.875 575.125L168.75 579.5L151.25 583.875L133.125 587L113.75 588.875L96.875 589.5L95 587.625L93.125 582L93.75 578.875L98.125 570.125L103.125 557.625L107.5 550.125L115 540.125L121.875 532L127.5 525.125L136.875 515.125L142.5 508.875L152.5 499.5L159.375 494.5L165 492L176.25 490.75L194.375 490.125L203.75 488.25L221.875 482.625L234.375 477.625L245 472.625L252.5 467.625L260.625 461.375Z" fill="#FEBB38"></path>
<path d="M288.75 493.875L293.125 495.125L295 499.5L296.25 507.625V541.375L293.125 550.75L289.375 568.875L286.25 583.25L283.125 591.375L276.25 604.5L270 613.25L264.375 620.125L255.625 629.5L248.125 636.375L241.875 641.375L233.125 648.875L225.625 656.375L219.375 660.75L215.625 662L210.625 661.375L207.5 657.625L205.625 651.375L205 645.75V627L205.625 614.5L206.875 610.75L210 603.25L215 574.5L218.125 565.75L223.125 559.5L229.375 554.5L241.25 547L249.375 540.75L253.75 536.375L260.625 527.625L270 515.125L278.125 503.875L283.125 497.625L286.25 494.5L288.75 493.875Z" fill="#FEBB38"></path>
<path d="M313.75 524.5L316.875 525.125L322.5 528.875L330 536.375L335.625 545.125L340 554.5L343.125 565.75L345.625 580.75L346.25 588.25V612L344.375 630.75L341.875 645.125L338.125 660.125L328.75 688.875L325 696.375L320.625 700.75L316.25 702.625H312.5L309.375 699.5L301.875 685.125L295.625 673.25L288.75 658.25L283.75 644.5L280.625 630.75V617.625L283.75 608.25L291.875 592.625L298.125 580.75L301.25 571.375L303.125 559.5L303.75 540.125L306.25 534.5L310.625 527.625L313.75 524.5Z" fill="#FEBB38"></path>
<path d="M347.5 543.875H351.875L363.125 548.875L371.875 554.5L378.125 559.5L383.75 564.5L389.375 571.375L394.375 577.625L400.625 587L405.625 596.375L411.875 612L415.625 625.75L417.5 637.625V660.125L416.25 668.25L414.375 670.125L410 671.375H405L400.625 667.625V666.375L398.125 665.125L392.5 660.125L380.625 651.375L371.875 644.5L364.375 637L360 630.125L357.5 622.625L356.875 618.25L356.25 602.625L355 592L351.25 578.875L346.875 567L343.75 553.875V547L347.5 543.875Z" fill="#FEBB38"></path>
<path d="M390.625 551.375L402.5 552.625L413.125 555.125L423.125 558.875L433.125 563.875L443.125 570.75L449.375 575.75L455.625 581.375L462.5 588.875L470.625 600.125L478.125 614.5L481.875 625.75L484.375 637.625V641.375L481.25 643.25L476.25 644.5L470 645.125L465.625 643.25L455.625 638.25L433.75 630.75L426.875 627L421.875 622.625L417.5 615.75L413.125 605.75L408.125 592.625L403.75 583.875L398.125 577.625L391.25 570.125L388.125 564.5L387.5 562.625V556.375L389.375 552L390.625 551.375Z" fill="#FEBB38"></path>
</svg><style>@media (prefers-color-scheme: light) { :root { filter: none; } }
</style></svg>