<svg width="1280" height="1280" viewBox="0 0 1280 1280" fill="none" xmlns="http://www.w3.org/2000/svg">
<path d="M605.625 365H610.625L615.625 366.25L617.5 369.375L618.125 372.5V378.125L615.625 391.875L610 411.25L601.875 433.75L594.375 451.25L587.5 466.25L581.25 478.125L573.75 491.25L566.25 503.125L557.5 515.625L550 525.625L543.125 533.75L537.5 540.625L516.25 561.875L511.25 566.25L503.125 573.125L492.5 581.25L481.25 589.375L470.625 596.25L458.125 603.75L448.125 608.75L431.875 615L410 621.875L385.625 628.75L379.375 630H374.375L371.25 628.125L370 626.25L369.375 623.125L370 613.75L373.75 604.375L376.875 590L380.625 568.75L383.75 558.75L390.625 541.875L399.375 523.125L405.625 511.25L415.625 494.375L424.375 481.25L431.875 471.25L437.5 465L441.875 460L449.375 451.875L459.375 442.5L468.125 435L478.75 426.25L490.625 417.5L503.125 408.75L516.25 400.625L531.875 391.875L546.25 385L575.625 375L605.625 365Z" fill="#FFBB38"/>
<path d="M382.5 288.125L385.625 289.375L391.875 295L395.625 300.625L399.375 309.375L405 332.5L410 348.75L416.25 371.25L420.625 390.625L423.75 409.375L425.625 426.875V453.125L423.75 465L420.625 475L416.875 480L404.375 492.5L398.125 501.875L390.625 515L385 525.625L376.875 543.125L371.25 557.5L368.125 568.75L363.75 592.5L360 610.625L356.875 620L351.875 630L348.125 634.375L340.625 639.375L337.5 641.25L334.375 640.625L328.75 636.875L324.375 630.625L319.375 620.625L314.375 606.875L306.25 576.25L300.625 554.375L297.5 538.75L295.625 525L294.375 503.125V494.375L295.625 474.375L298.125 456.25L302.5 435L307.5 417.5L312.5 402.5L320.625 382.5L329.375 364.375L336.875 350L345.625 335.625L355 321.875L363.125 310.625L370 302.5L375.625 295.625L382.5 288.125Z" fill="#FFBB38"/>
<path d="M163.125 375H168.75L176.875 377.5L183.75 381.875L190 387.5L195 391.875L200.625 396.875L211.25 405L220 411.875L226.875 417.5L235 424.375L247.5 435.625L259.375 447.5L265 454.375L271.25 461.875L278.75 473.75L284.375 485.625L285 526.875L285.625 545L287.5 559.375L290 570L296.25 585.625L305 605.625L310 620.625L312.5 633.125V649.375L310 659.375L306.25 662.5L301.875 661.875L294.375 655.625L285 649.375L275.625 643.75L258.75 634.375L247.5 626.875L241.25 621.875L235 616.25L225.625 606.875L218.75 598.125L212.5 590L203.125 575.625L196.25 563.75L188.75 549.375L181.25 533.75L173.75 515L168.75 500L166.25 484.375L163.75 468.125L159.375 443.125L157.5 425V398.125L159.375 385.625L162.5 376.25L163.125 375Z" fill="#FFBB38"/>
<path d="M33.75 533.125H45L69.375 534.375L91.875 536.875L109.375 540L126.875 544.375L149.375 551.875L159.375 555.625L178.125 560.625L184.375 563.75L188.125 568.125L194.375 583.125L200.625 593.125L208.125 603.75L215 612.5L222.5 620.625L230 626.875L243.125 635L255.625 642.5L263.125 647.5L271.875 654.375L278.75 660.625L284.375 668.125L288.75 676.875L290.625 682.5V686.875L287.5 689.375L283.125 690.625L276.875 691.875L271.25 693.75L266.25 694.375H250.625L234.375 692.5L216.25 689.375L200.625 685.625L189.375 681.875L166.25 672.5L145.625 662.5L134.375 656.25L121.25 648.125L110 640L99.375 631.25L91.25 623.75L86.875 620V618.75H85.625L81.25 613.75L76.875 609.375L71.25 602.5L63.75 593.75L55.625 583.125L48.75 575L42.5 568.125L36.25 560L31.25 550L30.625 548.125V537.5L31.875 533.75L33.75 533.125Z" fill="#FFBB38"/>
<path d="M133.125 670.625L140 671.875L150 675.625L166.25 684.375L179.375 689.375L194.375 693.75L222.5 700L239.375 703.125L262.5 705.625L270 708.125L275 711.875L278.75 716.25L280.625 720.625L280 725.625L276.875 728.125L270.625 731.25L261.875 738.125L256.25 741.875L238.125 749.375L215 758.75L199.375 765L186.25 768.125L173.125 770L165 770.625H142.5L123.75 768.75L101.875 765L81.875 760L60 753.125L40 745.625L19.375 738.75L11.25 734.375L6.25 730L2.5 723.75L0.625 716.875L3.75 713.75L21.875 703.75L43.125 692.5L61.25 684.375L72.5 680L82.5 677.5L87.5 676.875L112.5 675.625L123.125 674.375L131.875 671.25L133.125 670.625Z" fill="#FFBB38"/>
<path d="M260.625 749.375H278.125L280.625 750.625L282.5 755V759.375L275 771.25L268.75 785L263.75 796.25L258.125 806.25L251.875 814.375L244.375 823.125L238.125 829.375L231.25 835L222.5 841.875L213.75 847.5L203.75 853.125L193.75 858.125L181.875 863.125L168.75 867.5L151.25 871.875L133.125 875L113.75 876.875L96.875 877.5L95 875.625L93.125 870L93.75 866.875L98.125 858.125L103.125 845.625L107.5 838.125L115 828.125L121.875 820L127.5 813.125L136.875 803.125L142.5 796.875L152.5 787.5L159.375 782.5L165 780L176.25 778.75L194.375 778.125L203.75 776.25L221.875 770.625L234.375 765.625L245 760.625L252.5 755.625L260.625 749.375Z" fill="#FFBB38"/>
<path d="M286.25 782.5H292.5L294.375 785.625L295.625 790L296.25 795V829.375L293.125 838.75L289.375 856.25L286.25 871.25L283.125 879.375L276.25 892.5L270 901.25L264.375 908.125L255.625 917.5L248.125 924.375L241.875 929.375L233.125 936.875L225.625 944.375L219.375 948.75L215.625 950L210.625 949.375L207.5 945.625L205.625 939.375L205 933.75V915L205.625 902.5L206.875 898.75L210 891.25L215 862.5L218.125 853.75L223.125 847.5L229.375 842.5L241.25 835L246.875 830.625L253.125 825L261.25 815L270 803.125L278.125 791.875L283.125 785.625L286.25 782.5Z" fill="#FFBB38"/>
<path d="M314.375 811.875L320.625 815.625L326.875 821.25L331.875 826.875L336.25 833.75L340 842.5L343.75 856.875L345.625 868.75L346.25 876.25V900L344.375 918.75L341.875 933.125L338.125 948.125L328.75 976.875L325 984.375L320.625 988.75L316.25 990.625H312.5L309.375 987.5L301.875 973.125L295.625 961.25L288.75 946.25L283.75 932.5L280.625 918.75V905.625L283.75 896.25L291.875 880.625L298.125 868.75L301.25 858.75L303.125 847.5L303.75 828.125L306.25 821.875L310.625 815.625L313.125 812.5L314.375 811.875Z" fill="#FFBB38"/>
<path d="M610 668.125L637.5 668.75L659.375 668.125V674.375L655.625 675.625L649.375 677.5L646.25 679.375L645.625 680.625L645 730H708.75L708.125 683.75L706.25 678.75L700 676.25L694.375 675L693.75 674.375V668.125L721.875 668.75L743.125 668.125L743.75 670.625L743.125 674.375L740 675.625L733.125 677.5L730 679.375L729.375 680.625V791.875L732.5 793.75L743.75 797.5V803.125L740.625 803.75L728.125 803.125H708.125L694.375 803.75L693.125 803.125V798.125L694.375 796.875L701.875 795L706.875 792.5L708.125 788.75V739.375L645 738.75L645.625 791.875L648.125 793.75L660 797.5V803.75L644.375 803.125H624.375L610 803.75L609.375 800.625L610 797.5L613.125 796.25L621.25 793.75L623.75 791.875L624.375 790V681.875L622.5 678.75L618.125 676.875L610.625 675L610 673.75V668.125Z" fill="#414143"/>
<path d="M914.375 668.125L931.875 668.75H986.875L1006.88 668.125L1007.5 668.75L1006.88 674.375L1003.75 675.625L996.875 677.5L993.75 679.375L993.125 680.625V791.25L995.625 793.75L1007.5 796.875L1008.75 798.75V803.125L1008.12 803.75L988.75 803.125H972.5L953.75 803.75L953.125 803.125V797.5L955 796.25L967.5 793.75L971.25 791.25L971.875 789.375V678.75H937.5L936.875 711.25L935.625 732.5L932.5 755.625L929.375 769.375L925.625 780.625L920.625 791.25L915.625 798.125L910.625 802.5L905 805H900.625L897.5 801.875L895 796.875L893.75 790.625V786.25L895 781.875L910 774.375L914.375 770.625L919.375 760.625L922.5 749.375L924.375 736.875L925.625 721.875L926.25 705.625V681.25L924.375 678.125L917.5 675.625L914.375 674.375V668.125Z" fill="#414143"/>
<path d="M1036.88 668.125L1056.88 668.75H1108.12L1121.25 668.125H1130L1131.88 671.875L1135.62 693.125L1136.88 697.5V700H1131.25L1127.5 694.375L1123.75 687.5L1120 683.125L1113.75 680L1106.88 678.75H1073.75L1073.12 730L1105 729.375L1108.75 727.5L1111.25 721.25L1113.12 714.375L1113.75 713.75H1120L1119.38 739.375L1120 755H1114.38L1112.5 751.875L1109.38 741.875L1106.88 739.375L1073.12 738.75L1073.75 789.375L1076.25 791.25L1081.25 792.5L1091.25 793.125H1110L1116.88 791.875L1123.75 788.125L1128.12 784.375L1133.75 775.625L1137.5 769.375L1143.75 770.625L1144.38 771.875L1140.62 784.375L1137.5 796.25L1135 802.5L1134.38 803.75H1126.88L1112.5 803.125H1036.88L1036.25 802.5V798.125L1037.5 796.875L1047.5 794.375L1051.88 791.875L1052.5 790V681.875L1050.62 678.75L1042.5 676.25L1036.88 674.375L1036.25 673.125V668.75L1036.88 668.125Z" fill="#414143"/>
<path d="M347.5 831.875L353.75 832.5L364.375 837.5L371.875 842.5L378.75 848.125L383.125 851.875L387.5 856.875L395 866.25L401.875 877.5L406.875 887.5L411.875 900L415.625 913.75L417.5 925.625V948.125L416.25 956.25L414.375 958.125L410 959.375H405L400.625 955.625V954.375L398.125 953.125L392.5 948.125L380.625 939.375L371.875 932.5L364.375 925L360 918.125L357.5 910.625L356.875 906.25L356.25 890.625L355 880L351.25 866.875L346.875 855L344.375 845L343.75 841.25V835L347.5 831.875Z" fill="#FFBB38"/>
<path d="M1170.62 668.125L1190.62 668.75L1231.88 669.375L1240.62 670.625L1249.38 673.75L1256.25 678.125L1261.25 683.125L1266.25 691.875L1268.12 698.75L1268.75 708.125L1267.5 715.625L1264.38 723.125L1260 730L1253.12 736.25L1244.38 741.25L1233.75 744.375L1226.88 745H1206.88L1207.5 790L1210 792.5L1218.12 795L1226.25 796.875L1226.88 797.5V803.125L1226.25 803.75L1209.38 803.125H1186.88L1171.88 803.75L1171.25 803.125L1171.88 797.5L1175 796.25L1183.12 793.75L1186.25 791.875V681.25L1183.75 678.125L1174.38 675.625L1170.62 674.375V668.125ZM1206.88 678.125V736.25H1218.12L1228.12 735L1235 732.5L1240.62 728.75L1244.38 723.125L1246.25 717.5L1246.88 713.125V703.75L1245 695L1241.25 687.5L1235.62 682.5L1228.75 679.375L1221.88 678.125H1206.88Z" fill="#414143"/>
<path d="M519.375 666.875H522.5L524.375 669.375L540 708.125L549.375 731.25L563.75 766.875L573.125 790L573.75 791.875L576.875 793.125L583.75 795.625L588.75 797.5L589.375 803.125L588.75 803.75L575 803.125H552.5L537.5 803.75L536.875 803.125V798.125L538.125 796.875L548.125 793.75L550 792.5V788.75L540 762.5L537.5 755.625V754.375H491.25L489.375 760.625L479.375 786.25L478.125 791.25L481.25 794.375L491.875 797.5L492.5 798.125V803.125L491.875 803.75L477.5 803.125H450.625V797.5L456.25 795.625L463.125 793.125L466.25 790L473.75 772.5L485 745L496.25 718.125L506.875 692.5L516.25 670L519.375 666.875ZM514.375 696.25L495.625 743.75V745H533.75L526.875 726.25L518.125 703.125L515 696.25H514.375Z" fill="#414143"/>
<path d="M371.25 666.875H394.375L408.75 668.75L422.5 671.875L423.75 673.75L426.25 692.5L428.125 700.625V703.125H421.25L419.375 700L415.625 690.625L411.25 684.375L406.25 680.625L398.75 677.5L390 676.25H380L371.25 677.5L363.125 680L355 684.375L348.75 689.375L344.375 694.375L339.375 703.125L336.25 711.25L334.375 720L333.75 727.5V738.125L335.625 750L339.375 761.25L344.375 771.25L350 778.75L356.25 785L363.125 789.375L371.25 793.125L378.125 795L384.375 795.625H390L400 794.375L408.125 791.25L413.75 786.875L418.125 780.625L424.375 768.125L425 767.5H431.875L432.5 769.375L426.875 788.125L423.75 801.25L418.75 802.5L402.5 804.375L394.375 805H370.625L359.375 803.125L349.375 800L340.625 795.625L333.75 790.625L328.125 785.625L321.875 777.5L316.875 768.125L313.75 758.75L311.875 750L311.25 745V728.125L313.75 715.625L318.125 703.75L323.75 694.375L329.375 687.5L334.375 682.5L341.875 676.875L351.25 671.875L360.625 668.75L371.25 666.875Z" fill="#414143"/>
<path d="M390.625 839.375L398.75 840L411.25 842.5L423.125 846.875L435 853.125L445.625 860.625L455 868.75L462.5 876.875L470.625 888.125L478.125 902.5L481.875 913.75L484.375 925.625V929.375L481.25 931.25L476.25 932.5L470 933.125L465.625 931.25L455.625 926.25L433.75 918.75L426.875 915L421.875 910.625L417.5 903.75L412.5 892.5L408.125 880.625L403.75 871.875L392.5 859.375L388.75 854.375L387.5 850.625V844.375L389.375 840L390.625 839.375Z" fill="#FFBB38"/>
<path d="M773.125 668.125L793.75 668.75H840.625L854.375 668.125H863.125L865 670.625L867.5 682.5L870 696.25L871.25 701.875L870.625 702.5H865L858.125 689.375L854.375 685V683.75L846.875 680L840.625 678.75H809.375V790L812.5 792.5L817.5 794.375L828.75 796.25L830.625 798.125V803.125L830 803.75L808.75 803.125H788.125L773.75 803.75L773.125 803.125V797.5L778.75 795.625L786.875 792.5L788.125 791.875L788.75 790V681.875L786.875 678.75L778.75 676.25L773.125 674.375V668.125Z" fill="#414143"/>
</svg>
