<svg width="1309" height="703" viewBox="0 0 1309 703" fill="none" xmlns="http://www.w3.org/2000/svg">
<g clip-path="url(#clip0_1_2)">
<path d="M655.736 77H661.15L666.563 78.25L668.593 81.375L669.27 84.5V90.125L666.563 103.875L660.473 123.25L651.676 145.75L643.555 163.25L636.111 178.25L629.344 190.125L621.223 203.25L613.103 215.125L603.629 227.625L595.508 237.625L588.064 245.75L581.974 252.625L558.966 273.875L553.552 278.25L544.755 285.125L533.251 293.25L521.07 301.375L509.566 308.25L496.031 315.75L485.204 320.75L467.609 327L443.924 333.875L417.533 340.75L410.765 342H405.352L401.968 340.125L400.615 338.25L399.938 335.125L400.615 325.75L404.675 316.375L408.059 302L412.119 280.75L415.502 270.75L422.946 253.875L432.42 235.125L439.187 223.25L450.015 206.375L459.489 193.25L467.609 183.25L473.7 177L478.437 172L486.557 163.875L497.385 154.5L506.859 147L518.363 138.25L531.22 129.5L544.755 120.75L558.966 112.625L575.884 103.875L591.448 97L623.254 87L655.736 77Z" fill="#FFBB38"/>
<path d="M414.149 0.125L417.533 1.375L424.3 7L428.36 12.625L432.42 21.375L438.511 44.5L443.924 60.75L450.691 83.25L455.428 102.625L458.812 121.375L460.842 138.875V165.125L458.812 177L455.428 187L451.368 192L437.834 204.5L431.067 213.875L422.946 227L416.856 237.625L408.059 255.125L401.968 269.5L398.585 280.75L393.848 304.5L389.787 322.625L386.404 332L380.99 342L376.93 346.375L368.809 351.375L365.426 353.25L362.042 352.625L355.952 348.875L351.215 342.625L345.801 332.625L340.387 318.875L331.59 288.25L325.499 266.375L322.116 250.75L320.086 237L318.732 215.125V206.375L320.086 186.375L322.793 168.25L327.53 147L332.943 129.5L338.357 114.5L347.154 94.5L356.628 76.375L364.749 62L374.223 47.625L384.374 33.875L393.171 22.625L400.615 14.5L406.705 7.625L414.149 0.125Z" fill="#FFBB38"/>
<path d="M176.622 87H182.713L191.51 89.5L198.954 93.875L205.721 99.5L211.135 103.875L217.225 108.875L228.729 117L238.203 123.875L245.647 129.5L254.444 136.375L267.979 147.625L280.836 159.5L286.927 166.375L293.694 173.875L301.814 185.75L307.905 197.625L308.582 238.875L309.258 257L311.288 271.375L313.995 282L320.762 297.625L330.236 317.625L335.65 332.625L338.357 345.125V361.375L335.65 371.375L331.59 374.5L326.853 373.875L318.732 367.625L308.582 361.375L298.431 355.75L280.16 346.375L267.979 338.875L261.212 333.875L254.444 328.25L244.294 318.875L236.85 310.125L230.083 302L219.932 287.625L212.488 275.75L204.368 261.375L196.247 245.75L188.126 227L182.713 212L180.006 196.375L177.299 180.125L172.562 155.125L170.532 137V110.125L172.562 97.625L175.946 88.25L176.622 87Z" fill="#FFBB38"/>
<path d="M36.5426 245.125H48.7234L75.1153 246.375L99.477 248.875L118.425 252L137.373 256.375L161.735 263.875L172.562 267.625L192.863 272.625L199.631 275.75L203.691 280.125L210.458 295.125L217.225 305.125L225.346 315.75L232.79 324.5L240.91 332.625L249.031 338.875L263.242 347L276.776 354.5L284.897 359.5L294.371 366.375L301.814 372.625L307.905 380.125L312.642 388.875L314.672 394.5V398.875L311.288 401.375L306.551 402.625L299.784 403.875L293.694 405.75L288.28 406.375H271.362L253.768 404.5L234.143 401.375L217.225 397.625L205.044 393.875L180.006 384.5L157.674 374.5L145.494 368.25L131.283 360.125L119.102 352L107.598 343.25L98.8003 335.75L94.0633 332V330.75H92.7098L87.9728 325.75L83.2358 321.375L77.1454 314.5L69.0248 305.75L60.2276 295.125L52.7837 287L46.0166 280.125L39.2494 272L33.8357 262L33.159 260.125V249.5L34.5124 245.75L36.5426 245.125Z" fill="#FFBB38"/>
<path d="M144.14 382.625L151.584 383.875L162.411 387.625L180.006 396.375L194.217 401.375L210.458 405.75L240.91 412L259.181 415.125L284.22 417.625L292.34 420.125L297.754 423.875L301.814 428.25L303.845 432.625L303.168 437.625L299.784 440.125L293.017 443.25L283.543 450.125L277.453 453.875L257.828 461.375L232.79 470.75L215.872 477L201.661 480.125L187.45 482L178.652 482.625H154.291L133.989 480.75L110.304 477L88.6495 472L64.9646 465.125L43.3097 457.625L20.9781 450.75L12.1809 446.375L6.76712 442L2.70684 435.75L0.676697 428.875L4.06027 425.75L23.685 415.75L46.6933 404.5L66.318 396.375L78.4988 392L89.3263 389.5L94.74 388.875L121.809 387.625L133.313 386.375L142.787 383.25L144.14 382.625Z" fill="#FFBB38"/>
<path d="M282.19 461.375H301.138L303.845 462.625L305.875 467V471.375L297.754 483.25L290.987 497L285.573 508.25L279.483 518.25L272.716 526.375L264.595 535.125L257.828 541.375L250.384 547L240.91 553.875L231.436 559.5L220.609 565.125L209.781 570.125L196.924 575.125L182.713 579.5L163.765 583.875L144.14 587L123.162 588.875L104.891 589.5L102.861 587.625L100.83 582L101.507 578.875L106.244 570.125L111.658 557.625L116.395 550.125L124.515 540.125L131.959 532L138.05 525.125L148.2 515.125L154.291 508.875L165.118 499.5L172.562 494.5L178.652 492L190.833 490.75L210.458 490.125L220.609 488.25L240.233 482.625L253.768 477.625L265.272 472.625L273.392 467.625L282.19 461.375Z" fill="#FFBB38"/>
<path d="M309.935 494.5H316.702L318.732 497.625L320.086 502L320.762 507V541.375L317.379 550.75L313.319 568.25L309.935 583.25L306.551 591.375L299.108 604.5L292.34 613.25L286.25 620.125L276.776 629.5L268.655 636.375L261.888 641.375L252.414 648.875L244.294 656.375L237.527 660.75L233.466 662L228.053 661.375L224.669 657.625L222.639 651.375L221.962 645.75V627L222.639 614.5L223.992 610.75L227.376 603.25L232.79 574.5L236.173 565.75L241.587 559.5L248.354 554.5L261.212 547L267.302 542.625L274.069 537L282.866 527L292.34 515.125L301.138 503.875L306.551 497.625L309.935 494.5Z" fill="#FFBB38"/>
<path d="M340.387 523.875L347.154 527.625L353.921 533.25L359.335 538.875L364.072 545.75L368.132 554.5L372.193 568.875L374.223 580.75L374.9 588.25V612L372.869 630.75L370.163 645.125L366.102 660.125L355.952 688.875L351.891 696.375L347.154 700.75L342.417 702.625H338.357L334.973 699.5L326.853 685.125L320.086 673.25L312.642 658.25L307.228 644.5L303.845 630.75V617.625L307.228 608.25L316.025 592.625L322.793 580.75L326.176 570.75L328.206 559.5L328.883 540.125L331.59 533.875L336.327 527.625L339.034 524.5L340.387 523.875Z" fill="#FFBB38"/>
<path d="M639.495 380L669.27 380.625L692.955 380V386.25L688.895 387.5L682.128 389.375L678.744 391.25L678.067 392.5L677.391 441.875H746.415L745.739 395.625L743.709 390.625L736.941 388.125L730.851 386.875L730.174 386.25V380L760.626 380.625L783.635 380L784.311 382.5L783.635 386.25L780.251 387.5L772.807 389.375L769.424 391.25L768.747 392.5V503.75L772.131 505.625L784.311 509.375V515L780.928 515.625L767.394 515H745.739L730.851 515.625L729.498 515V510L730.851 508.75L738.972 506.875L744.385 504.375L745.739 500.625V451.25L677.391 450.625L678.067 503.75L680.774 505.625L693.632 509.375V515.625L676.714 515H655.059L639.495 515.625L638.818 512.5L639.495 509.375L642.878 508.125L651.676 505.625L654.382 503.75L655.059 501.875V393.75L653.029 390.625L648.292 388.75L640.171 386.875L639.495 385.625V380Z" fill="#565658"/>
<path d="M932.918 380L951.866 380.625H1011.42L1033.08 380L1033.75 380.625L1033.08 386.25L1029.69 387.5L1022.24 389.375L1018.86 391.25L1018.18 392.5V503.125L1020.89 505.625L1033.75 508.75L1035.1 510.625V515L1034.42 515.625L1013.45 515H995.852L975.551 515.625L974.874 515V509.375L976.904 508.125L990.439 505.625L994.499 503.125L995.176 501.25V390.625H957.956L957.28 423.125L955.926 444.375L952.543 467.5L949.159 481.25L945.099 492.5L939.685 503.125L934.271 510L928.858 514.375L922.767 516.875H918.03L914.647 513.75L911.94 508.75L910.586 502.5V498.125L911.94 493.75L928.181 486.25L932.918 482.5L938.332 472.5L941.715 461.25L943.745 448.75L945.099 433.75L945.775 417.5V393.125L943.745 390L936.301 387.5L932.918 386.25V380Z" fill="#565658"/>
<path d="M1060.69 382L1082.34 382.62H1137.82L1152.04 382H1161.51L1163.55 385.722L1167.6 406.816L1168.96 411.158V413.64H1162.87L1158.8 408.056L1154.74 401.232L1150.68 396.889L1143.92 393.787L1136.48 392.547H1100.61L1099.93 443.419L1134.44 442.798L1138.5 440.937L1141.21 434.733L1143.24 427.909L1143.92 427.289H1150.68L1150.01 452.725L1150.68 468.234H1144.6L1142.56 465.132L1139.19 455.206L1136.48 452.725L1099.93 452.104L1100.61 502.356L1103.31 504.217L1108.73 505.458L1119.56 506.078H1139.86L1147.31 504.838L1154.74 501.115L1159.48 497.393L1165.57 488.707L1169.63 482.503L1176.4 483.744L1177.08 484.985L1173.01 497.393L1169.63 509.18L1166.93 515.384L1166.25 516.625H1158.13L1142.56 516.005H1060.69L1060 515.384V511.041L1061.36 509.801L1072.19 507.319L1076.93 504.838L1077.6 502.976V395.649L1075.56 392.547L1066.77 390.065L1060.69 388.204L1060 386.963V382.62L1060.69 382Z" fill="#565658"/>
<path d="M376.253 543.875L383.02 544.5L394.524 549.5L402.645 554.5L410.089 560.125L414.826 563.875L419.563 568.875L427.683 578.25L435.127 589.5L440.541 599.5L445.955 612L450.015 625.75L452.045 637.625V660.125L450.692 668.25L448.661 670.125L443.924 671.375H438.511L433.774 667.625V666.375L431.067 665.125L424.976 660.125L412.119 651.375L402.645 644.5L394.524 637L389.787 630.125L387.08 622.625L386.404 618.25L385.727 602.625L384.374 592L380.313 578.875L375.576 567L372.869 557L372.193 553.25V547L376.253 543.875Z" fill="#FFBB38"/>
<path d="M1201.84 380L1223.5 380.625L1268.17 381.25L1277.64 382.5L1287.12 385.625L1294.56 390L1299.97 395L1305.39 403.75L1307.41 410.625L1308.09 420L1306.74 427.5L1303.36 435L1298.62 441.875L1291.17 448.125L1281.71 453.125L1270.2 456.25L1262.76 456.875H1241.1L1241.78 501.875L1244.48 504.375L1253.27 506.875L1262.08 508.75L1262.76 509.375V515L1262.08 515.625L1243.81 515H1219.45L1203.21 515.625L1202.53 515L1203.21 509.375L1206.59 508.125L1215.38 505.625L1218.77 503.75V393.125L1216.06 390L1205.92 387.5L1201.84 386.25V380ZM1241.1 390V448.125H1253.27L1264.1 446.875L1271.55 444.375L1277.64 440.625L1281.71 435L1283.73 429.375L1284.41 425V415.625L1282.38 406.875L1278.32 399.375L1272.22 394.375L1264.78 391.25L1257.35 390H1241.1Z" fill="#565658"/>
<path d="M554.093 379H557.477L559.507 381.5L576.425 420.25L586.576 443.375L602.14 479L612.291 502.125L612.967 504L616.351 505.25L623.795 507.75L629.209 509.625L629.885 515.25L629.209 515.875L614.321 515.25H589.959L573.718 515.875L573.041 515.25V510.25L574.395 509L585.222 505.875L587.252 504.625V500.875L576.425 474.625L573.718 467.75V466.5H523.641L521.611 472.75L510.784 498.375L509.43 503.375L512.814 506.5L524.318 509.625L524.995 510.25V515.25L524.318 515.875L508.754 515.25H479.655V509.625L485.745 507.75L493.189 505.25L496.573 502.125L504.693 484.625L516.874 457.125L529.055 430.25L540.559 404.625L550.71 382.125L554.093 379ZM548.68 408.375L528.378 455.875V457.125H569.658L562.214 438.375L552.74 415.25L549.356 408.375H548.68Z" fill="#565658"/>
<path d="M404.675 377H429.713L445.278 378.875L460.166 382L461.519 383.875L464.226 402.625L466.256 410.75V413.25H457.459L455.429 410.125L452.722 400.75L447.985 394.5L442.571 390.75L434.45 387.625L424.976 386.375H414.149L404.675 387.625L395.878 390.125L387.622 394.5L382.208 400.75L379.501 405.5L377.877 410.125L376.253 416.5L374.087 426.5L372.869 438.25V450L374.087 461.5L376.253 472L379.501 481.625L383.291 489L388.434 495.125L395.878 499.5L404.675 503.25L412.119 505.125L418.886 505.75H424.976L435.804 504.5L444.601 501.375L450.692 497L455.429 490.75L460.707 478.625L462.872 477.625H470.316L470.993 479.5L464.903 498.25L461.519 511.375L456.105 512.625L438.511 514.5L429.713 515.125H403.998L391.817 513.25L380.99 510.125L371.516 505.75L364.072 500.75L357.982 495.75L351.215 487.625L345.801 478.25L342.417 468.875L340.387 460.125L339.71 455.125V438.25L342.417 425.75L347.154 413.875L353.245 404.5L359.335 397.625L364.749 392.625L372.869 387L383.02 382L393.171 378.875L404.675 377Z" fill="#565658"/>
<path d="M422.946 551.375L431.744 552L445.278 554.5L458.135 558.875L470.993 565.125L482.497 572.625L492.648 580.75L500.768 588.875L509.566 600.125L517.686 614.5L521.746 625.75L524.453 637.625V641.375L521.07 643.25L515.656 644.5L508.889 645.125L504.152 643.25L493.324 638.25L469.639 630.75L462.196 627L456.782 622.625L452.045 615.75L446.631 604.5L441.894 592.625L437.157 583.875L424.976 571.375L420.916 566.375L419.563 562.625V556.375L421.593 552L422.946 551.375Z" fill="#FFBB38"/>
<path d="M801.229 380L823.561 380.625H874.314L889.202 380H898.676L900.706 382.5L903.413 394.375L906.12 408.125L907.473 413.75L906.797 414.375H900.706L893.262 401.25L889.202 396.875V395.625L881.082 391.875L874.314 390.625H840.479V501.875L843.862 504.375L849.276 506.25L861.457 508.125L863.487 510V515L862.81 515.625L839.802 515H817.471L801.906 515.625L801.229 515V509.375L807.32 507.5L816.117 504.375L817.471 503.75L818.147 501.875V393.75L816.117 390.625L807.32 388.125L801.229 386.25V380Z" fill="#565658"/>
</g>
<defs>
<clipPath id="clip0_1_2">
<rect width="1309" height="703" fill="white"/>
</clipPath>
</defs>
</svg>
